<svg xmlns="http://www.w3.org/2000/svg" viewBox="0 0 420 104" role="img" aria-labelledby="title">
  <title id="title">Professor Lucas MPC</title>
  <defs><linearGradient id="brand" x1="10" y1="10" x2="400" y2="94" gradientUnits="userSpaceOnUse"><stop stop-color="#22d3ee"/><stop offset=".5" stop-color="#3b82f6"/><stop offset="1" stop-color="#c026d3"/></linearGradient></defs>
  <rect width="420" height="104" rx="20" fill="#040916"/>
  <circle cx="53" cy="49" r="32" fill="none" stroke="url(#brand)" stroke-width="4"/>
  <path d="M41 56c-5-4-6-9-4-14 2-7 8-12 16-12 10 0 17 7 17 15 0 6-3 10-8 13-3 2-5 5-5 9H46c0-5-1-8-5-11Z" fill="none" stroke="url(#brand)" stroke-width="4" stroke-linecap="round" stroke-linejoin="round"/>
  <path d="M46 38c3-3 8-2 8 2 3-3 7 0 6 3 4 0 6 5 2 8M47 68h11M48 75h9" fill="none" stroke="url(#brand)" stroke-width="3.4" stroke-linecap="round"/>
  <text x="102" y="43" fill="#b8c5d9" font-family="Arial,Helvetica,sans-serif" font-size="20" font-weight="600">PROFESSOR</text>
  <text x="101" y="76" fill="url(#brand)" font-family="Arial,Helvetica,sans-serif" font-size="34" font-weight="800" letter-spacing=".5">LUCAS MPC</text>
</svg>
